<?xml version="1.0" encoding="utf-8"?>
<!-- Generator: Adobe Illustrator 16.0.0, SVG Export Plug-In . SVG Version: 6.00 Build 0)  -->
<!DOCTYPE svg PUBLIC "-//W3C//DTD SVG 1.1//EN" "http://www.w3.org/Graphics/SVG/1.1/DTD/svg11.dtd">
<svg version="1.1" id="Layer_1" xmlns="http://www.w3.org/2000/svg" xmlns:xlink="http://www.w3.org/1999/xlink" x="0px" y="0px"
	 width="120px" height="32px" viewBox="0 0 143 32" enable-background="new 0 0 143 32" xml:space="preserve">
<g>
	<path fill="#fff" d="M6.818,15.906v15.91H2.272v-15.91H0v-4.543h2.271c0-3.136,1.111-5.812,3.331-8.034
		C7.821,1.111,10.5,0,13.636,0v4.545c-1.88,0-3.487,0.667-4.818,2.001c-1.334,1.334-2,2.939-2,4.817"/>
	<rect x="18.096" fill="#fff" width="4.545" height="31.816"/>
	<path fill="#fff" d="M37.205,13.635c-1.88,0-3.485,0.667-4.819,2c-1.332,1.336-2,2.938-2,4.818c0,1.877,0.668,3.484,2,4.818
		c1.334,1.332,2.939,2,4.819,2c1.876,0,3.484-0.668,4.818-2c1.333-1.334,1.999-2.941,1.999-4.818c0-1.88-0.665-3.482-1.999-4.818
		C40.689,14.302,39.081,13.635,37.205,13.635 M37.205,31.816c-3.136,0-5.814-1.113-8.032-3.328c-2.222-2.221-3.332-4.9-3.332-8.035
		c0-3.138,1.11-5.814,3.332-8.034c2.217-2.218,4.896-3.329,8.032-3.329c3.135,0,5.813,1.11,8.034,3.329
		c2.219,2.22,3.329,4.896,3.329,8.034c0,3.134-1.11,5.814-3.329,8.035C43.018,30.704,40.34,31.816,37.205,31.816"/>
	<path fill="#fff" d="M67.268,9.091h4.544v1.183c1.348-0.789,2.862-1.183,4.543-1.183c2.515,0,4.658,0.886,6.432,2.658
		c0.138,0.137,0.267,0.274,0.388,0.409c0.119-0.135,0.249-0.272,0.384-0.409c1.774-1.772,3.918-2.658,6.432-2.658
		c2.515,0,4.659,0.886,6.43,2.658c1.774,1.773,2.66,3.917,2.66,6.432v13.636h-4.545V18.181c0-1.258-0.441-2.328-1.329-3.216
		c-0.885-0.887-1.958-1.33-3.216-1.33c-1.257,0-2.329,0.442-3.217,1.33c-0.885,0.888-1.326,1.958-1.326,3.216v13.636H80.9V18.181
		c0-1.258-0.442-2.328-1.329-3.216c-0.884-0.887-1.958-1.33-3.216-1.33c-1.258,0-2.329,0.442-3.213,1.33
		c-0.888,0.888-1.33,1.958-1.33,3.216v13.636h-4.544V9.091z"/>
	<path fill="#fff" d="M113.646,13.635c-1.879,0-3.483,0.667-4.817,2c-1.333,1.336-1.999,2.938-1.999,4.818
		c0,1.877,0.666,3.484,1.999,4.818c1.333,1.332,2.938,2,4.817,2c1.877,0,3.485-0.668,4.818-2c1.333-1.334,2-2.941,2-4.818
		c0-1.88-0.667-3.482-2-4.818C117.131,14.302,115.522,13.635,113.646,13.635 M120.463,29.564c-1.955,1.501-4.226,2.252-6.818,2.252
		c-3.134,0-5.813-1.113-8.032-3.328c-2.22-2.221-3.33-4.9-3.33-8.035c0-3.138,1.11-5.814,3.33-8.034
		c2.219-2.218,4.898-3.329,8.032-3.329c2.592,0,4.863,0.75,6.818,2.251V9.091h4.545v22.726h-4.545V29.564z"/>
	<path fill="#fff" d="M62.572,9.112c-0.802,0.033-1.577,0.139-2.316,0.32c-2.779,0.592-6.757,2.219-8.148,6.712
		c-0.142,0.389-0.263,0.799-0.338,1.233v2.581v11.858h4.544V20.454c0-1.88,0.451-3.736,1.782-5.068
		c1.333-1.333,3.158-1.75,5.037-1.75V9.091C63.132,9.091,62.917,9.091,62.572,9.112"/>
	<path fill="#fff" d="M139.955,9.112c-0.803,0.033-1.577,0.139-2.316,0.32c-2.78,0.592-6.758,2.219-8.148,6.712
		c-0.144,0.389-0.263,0.799-0.337,1.233v2.581v11.858h4.545V20.454c0-1.88,0.447-3.736,1.78-5.068
		c1.333-1.333,3.157-1.75,5.036-1.75V9.091C140.515,9.091,140.3,9.091,139.955,9.112"/>
	<path fill="#fff" d="M15.238,14c0,1.733-1.406,3.14-3.141,3.14c-1.734,0-3.141-1.406-3.141-3.14
		c0-1.734,1.407-3.141,3.141-3.141C13.832,10.858,15.238,12.265,15.238,14"/>
</g>
</svg>
