<svg xmlns="http://www.w3.org/2000/svg" style="isolation:isolate" viewBox="0 0 345 199">
    <g fill="#499DF3">
        <path fill-rule="evenodd" d="M80.6 188.5c-1 0-2-.3-2.7-.8a5.4 5.4 0 01-2.6-4.5l.2-32H40.7c-21.5 0-30.2-8.7-30.2-30.3V40.7c0-21.5 8.7-30.2 30.2-30.2H306c23.7 0 28.4 11.1 28.4 30.2v80.4c0 21.5-8.7 30.2-30.2 30.2h-148l-73.5 36.9c-.7.2-1.5.3-2.2.3zm-39.4-167c-15.6 0-19.7 4-19.7 19.7v80.5c0 15.7 4 19.7 19.7 19.7H81a6 6 0 013.7 1.6c1 1 1.5 2.4 1.5 3.7v28.8l67-33.6c.7-.3 1.5-.6 2.4-.6h149.1c15.6 0 19.7-4 19.7-19.7V41.2c0-8.4-1-13.4-3.3-16-1.4-1.6-4.5-3.7-14.6-3.7H41.2z"/>
        <path d="M126.9 112v9.5H80.3V43.1h10.6v69h36zm19.6-48.7v58.2h-10.1V63.3h10zm-5-10q-3 0-5-2-2.1-2.1-2.1-5 0-3.3 1.9-5.2 1.9-1.9 5.1-1.9 3 0 5 2 2 2.2 2 5 0 3.3-1.8 5.2-2 2-5.2 2zm38.5 68.2L156.5 66l9.2-3.8 19.9 48 19.8-48L214 66l-23.5 55.5H180zm89-25h-40.8q1 8.2 5.7 12.8 4.7 4.6 12.5 4.6 5 0 9-1 4-1.1 7.8-2.8l2.3 8.6q-4 2-9 3-5 1.2-11.4 1.2-6.2 0-11.3-2-5-2.2-8.5-6-3.6-3.9-5.5-9.5-1.9-5.7-1.9-13 0-6.5 2-12 1.8-5.7 5.3-9.8 3.5-4 8.3-6.3 4.8-2.3 10.7-2.3 6.3 0 11 2 4.7 2.2 7.9 6 3 3.6 4.7 8.5 1.5 5 1.5 10.4 0 4-.3 7.7zm-25-25.8q-6.6 0-10.8 4.5-4.2 4.5-5 13.2H260q0-8.5-4.2-13.1-4.3-4.6-11.8-4.6z"/>
    </g>
</svg>